<svg xmlns="http://www.w3.org/2000/svg"  viewBox="0 0 64 64" width="64px" height="64px"><path d="M 16 8 C 11.582 8 8 11.582 8 16 L 8 48 C 8 52.418 11.582 56 16 56 L 48 56 C 52.418 56 56 52.418 56 48 L 56 16 C 56 11.582 52.418 8 48 8 L 16 8 z M 32.001953 17 C 41.374953 17 49 23.112953 49 30.626953 C 49 33.633953 47.819516 36.343719 45.353516 39.011719 L 45.355469 39.011719 C 41.788469 43.067719 33.812047 48.007719 31.998047 48.761719 C 30.185047 49.516719 30.453344 48.279469 30.527344 47.855469 C 30.571344 47.603469 30.769531 46.417969 30.769531 46.417969 C 30.826531 45.988969 30.886844 45.324391 30.714844 44.900391 C 30.523844 44.434391 29.770797 44.190266 29.216797 44.072266 C 21.047797 43.005266 15 37.362953 15 30.626953 C 15 23.112953 22.627953 17 32.001953 17 z M 21.96875 26.662109 C 21.47675 26.662109 21.078125 27.057969 21.078125 27.542969 L 21.078125 34.216797 C 21.078125 34.703797 21.47675 35.097656 21.96875 35.097656 L 25.345703 35.097656 C 25.837703 35.097656 26.236328 34.701844 26.236328 34.214844 C 26.236328 33.730844 25.836703 33.335938 25.345703 33.335938 L 22.859375 33.335938 L 22.859375 27.542969 C 22.859375 27.056969 22.46075 26.662109 21.96875 26.662109 z M 27.947266 26.662109 C 27.455266 26.662109 27.056641 27.057969 27.056641 27.542969 L 27.056641 34.216797 C 27.056641 34.703797 27.455266 35.097656 27.947266 35.097656 C 28.439266 35.097656 28.839844 34.701797 28.839844 34.216797 L 28.839844 27.542969 C 28.839844 27.057969 28.438266 26.662109 27.947266 26.662109 z M 31.013672 26.662109 C 30.917672 26.662109 30.822469 26.676031 30.730469 26.707031 C 30.366469 26.827031 30.119141 27.163969 30.119141 27.542969 L 30.119141 34.216797 C 30.119141 34.703797 30.520719 35.097656 31.011719 35.097656 C 31.504719 35.097656 31.904297 34.701797 31.904297 34.216797 L 31.904297 30.087891 L 35.365234 34.744141 C 35.532234 34.964141 35.799125 35.097656 36.078125 35.097656 C 36.173125 35.097656 36.269328 35.081781 36.361328 35.050781 C 36.727328 34.931781 36.970703 34.596797 36.970703 34.216797 L 36.970703 27.542969 C 36.970703 27.057969 36.571078 26.662109 36.080078 26.662109 C 35.588078 26.662109 35.1875 27.057969 35.1875 27.542969 L 35.1875 31.671875 L 31.724609 27.015625 C 31.557609 26.795625 31.291672 26.662109 31.013672 26.662109 z M 39.058594 26.664062 C 38.566594 26.664062 38.167969 27.059922 38.167969 27.544922 L 38.167969 27.548828 L 38.167969 30.880859 L 38.167969 30.882812 L 38.167969 34.216797 C 38.167969 34.703797 38.568594 35.097656 39.058594 35.097656 L 42.435547 35.097656 C 42.927547 35.097656 43.328125 34.701797 43.328125 34.216797 C 43.328125 33.731797 42.926547 33.337891 42.435547 33.337891 L 39.949219 33.337891 L 39.949219 31.761719 L 42.435547 31.761719 C 42.928547 31.761719 43.328125 31.365859 43.328125 30.880859 C 43.328125 30.393859 42.926547 30 42.435547 30 L 42.435547 30.001953 L 39.949219 30.001953 L 39.949219 28.425781 L 42.435547 28.425781 C 42.928547 28.425781 43.328125 28.029922 43.328125 27.544922 C 43.328125 27.059922 42.926547 26.664063 42.435547 26.664062 L 39.058594 26.664062 z"/></svg>